# xmcd
#
# Track frame offsets:
#	150
#	19034
#	46754
#	63043
#	85225
#	106495
#	125811
#	148039
#	166010
#	186308
#
# Disc length: 2732 seconds
#
# Revision: 1
# Processed by: cddbd v1.5.2PL0 Copyright (c) Steve Scherf et al.
# Submitted via: audiograbber 1.83.01
#
DISCID=800aaa0a
DTITLE=Rick Astley  - Body and Soul 
DYEAR=1993
DGENRE=Dance
TTITLE0=The Ones You Love
TTITLE1=Waiting for the Bell to Ring
TTITLE2=Hopelessly
TTITLE3=A Dream for Us
TTITLE4=Body and Soul
TTITLE5=Enough Love
TTITLE6=Nature's Gift
TTITLE7=Remember the Days
TTITLE8=Everytime
TTITLE9=When You Love Someone
EXTD=
EXTT0=
EXTT1=
EXTT2=
EXTT3=
EXTT4=
EXTT5=
EXTT6=
EXTT7=
EXTT8=
EXTT9=
PLAYORDER=
